# xmcd CD database file
#
# Track frame offsets:
#	151
#	27073
#	43850
#	62790
#	77601
#	93300
#	117682
#	137205
#
# Disc length: 2144 seconds
#
# Revision: 0
# Processed by: cddbd v1.4PL0 Copyright (c) Steve Scherf et al.
# Submitted via: CDex 1.50beta8
#
DISCID=6a085e08
DTITLE=Wayne Shorter - Second Genesis
DYEAR=2002
DGENRE=Jazz
TTITLE0=The Ruby and The Pearl
TTITLE1=Pay As You Go
TTITLE2=Second Genesis
TTITLE3=Mister Chairman
TTITLE4=Tenderfoot
TTITLE5=The Albatross
TTITLE6=Getting To Know You
TTITLE7=I Didn't Know What Time It Was
EXTD=YEAR: 2002
EXTT0=
EXTT1=
EXTT2=
EXTT3=
EXTT4=
EXTT5=
EXTT6=
EXTT7=
PLAYORDER=
